<svg width="32" height="32" viewBox="0 0 32 32" fill="none" xmlns="http://www.w3.org/2000/svg">
<circle cx="16" cy="16" r="15.5" stroke="#505050"/>
<g clip-path="url(#clip0_302_8615)">
<path d="M14.088 22.616C11.4176 22.616 9.307 22.1494 8.29723 21.3362L8.27758 21.3203L8.25976 21.3025C8.01989 21.0625 7.94128 20.7477 8.0443 20.4389L8.0537 20.4132C8.1787 20.1006 8.48498 19.8902 8.81689 19.8882C9.49999 19.8764 10.0976 19.7949 10.64 19.6369C9.7749 19.2345 9.17394 18.5379 8.8164 17.5296C8.69616 17.2151 8.79992 16.8665 9.07702 16.6586C9.14538 16.6072 9.22265 16.5684 9.30444 16.5424C8.82372 15.9874 8.46862 15.356 8.26977 14.6881L8.26354 14.6674L8.25927 14.6461C8.19177 14.3084 8.34277 13.9611 8.6195 13.8115C8.73559 13.7449 8.86169 13.7103 8.98827 13.7074C8.8518 13.4135 8.75256 13.1117 8.69372 12.8081C8.53039 11.9668 8.66515 11.1234 9.09411 10.3014L9.19335 10.1029C9.27282 9.94411 9.42468 9.83254 9.59972 9.8041C9.77477 9.77578 9.95422 9.83364 10.0796 9.959L10.2604 10.14C11.6886 11.6373 12.9679 12.3478 15.1797 12.8339C15.2784 11.9849 15.6455 11.1957 16.2377 10.5746C16.9424 9.83559 17.8834 9.42092 18.8874 9.40676H18.894C19.6266 9.40676 20.5353 9.82497 21.0848 10.1199C21.5563 9.96559 22.1243 9.7267 22.7136 9.47414C22.9894 9.34474 23.3293 9.40395 23.5461 9.62075C23.7587 9.83327 23.8176 10.133 23.7048 10.4242C23.662 10.5435 23.6134 10.6605 23.5593 10.775C23.64 10.812 23.7139 10.8622 23.7762 10.9246C23.9648 11.1132 24.0434 11.4083 23.9764 11.6767L23.9692 11.7022C23.7434 12.4299 23.3096 13.0227 22.7358 13.3948C22.64 18.4975 18.7975 22.616 14.088 22.616ZM9.19701 20.8136C10.1486 21.3519 11.9619 21.6776 14.088 21.6776C16.1321 21.6776 18.061 20.8001 19.5194 19.2066C20.9897 17.6 21.7994 15.4666 21.7994 13.1992V13.1737C21.7994 12.9684 21.9125 12.781 22.0944 12.6846C22.4634 12.4892 22.7622 12.1563 22.9565 11.7306C22.7561 11.7622 22.5524 11.6818 22.4275 11.5141C22.2823 11.3191 22.2808 11.0558 22.4235 10.8591C22.5005 10.7529 22.5703 10.6425 22.6326 10.5282C22.1237 10.742 21.6404 10.9336 21.2208 11.0609C21.0684 11.1071 20.8984 11.089 20.7591 11.0112C20.0122 10.5951 19.3165 10.3463 18.8971 10.3451C17.3494 10.3688 16.0909 11.6944 16.0909 13.3015C16.0909 13.4677 16.0172 13.6234 15.8889 13.729C15.7605 13.8345 15.5935 13.8767 15.4304 13.8445C12.8801 13.3421 11.3689 12.5886 9.79736 11.0094C9.57214 11.5491 9.51061 12.0927 9.61474 12.6294C9.72033 13.1731 10.0012 13.7179 10.4271 14.2049C10.589 14.3897 10.6105 14.6541 10.4806 14.8627C10.3512 15.0706 10.1052 15.1677 9.86877 15.1044C9.68395 15.0548 9.51403 14.9898 9.3529 14.9061C9.68115 15.6192 10.2457 16.2786 10.9554 16.7649C11.1611 16.9059 11.2471 17.1687 11.1645 17.4041C11.0819 17.6398 10.8511 17.7915 10.6016 17.773C10.3297 17.7528 10.0889 17.7012 9.86718 17.6142C10.2651 18.4246 10.901 18.8705 11.8806 19.0409C12.1139 19.0816 12.2955 19.2658 12.3326 19.4993C12.3699 19.7328 12.2543 19.9643 12.0452 20.0752C11.2102 20.5178 10.2976 20.7554 9.19701 20.8136Z" fill="#505050"/>
</g>
<defs>
<clipPath id="clip0_302_8615">
<rect width="16" height="16" fill="white" transform="translate(8 8)"/>
</clipPath>
</defs>
</svg>
