<svg width="32" height="32" viewBox="0 0 32 32" fill="none" xmlns="http://www.w3.org/2000/svg">
<path d="M26.4751 11.9638C26.1611 8.50781 23.715 6.00041 20.6536 6.00041C18.6141 6.00041 16.7467 7.09794 15.6959 8.85697C14.6547 7.07519 12.8638 6 10.857 6C7.79605 6 5.34947 8.50739 5.03589 11.9634C5.01107 12.116 4.9093 12.9194 5.21875 14.2296C5.66471 16.1194 6.6948 17.8382 8.19692 19.1993L15.691 26L23.3137 19.1997C24.8158 17.8382 25.8459 16.1198 26.2919 14.2296C26.6013 12.9198 26.4995 12.1165 26.4751 11.9638ZM25.4864 14.0401C25.0793 15.7661 24.1357 17.3385 22.7602 18.5845L15.6959 24.8872L8.75293 18.5862C7.37491 17.3377 6.43169 15.7656 6.02421 14.0397C5.73131 12.7999 5.8517 12.0995 5.85211 12.0949L5.85832 12.0532C6.12722 9.02534 8.22919 6.82739 10.857 6.82739C12.7959 6.82739 14.5028 8.01882 15.3129 9.93629L15.6939 10.8394L16.0749 9.93629C16.8721 8.04819 18.6692 6.8278 20.6541 6.8278C23.2814 6.8278 25.3838 9.02575 25.6581 12.0929C25.6589 12.0995 25.7793 12.8003 25.4864 14.0401Z" fill="black"/>
</svg>
