<svg width="8" height="24" viewBox="0 0 8 24" fill="none" xmlns="http://www.w3.org/2000/svg">
<path d="M4.5 0.5C4.5 0.223858 4.27614 -1.20706e-08 4 0C3.72386 1.20706e-08 3.5 0.223858 3.5 0.5L4.5 0.5ZM3.64645 23.8536C3.84171 24.0488 4.15829 24.0488 4.35355 23.8536L7.53553 20.6716C7.7308 20.4763 7.7308 20.1597 7.53553 19.9645C7.34027 19.7692 7.02369 19.7692 6.82843 19.9645L4 22.7929L1.17157 19.9645C0.976312 19.7692 0.659729 19.7692 0.464467 19.9645C0.269205 20.1597 0.269205 20.4763 0.464467 20.6716L3.64645 23.8536ZM3.5 0.5L3.5 23.5L4.5 23.5L4.5 0.5L3.5 0.5Z" fill="#505050"/>
</svg>
