<svg width="32" height="32" viewBox="0 0 32 32" fill="none" xmlns="http://www.w3.org/2000/svg">
<path d="M22.5692 26H8.93771C8.91034 26 8.88288 25.9986 8.85579 25.9964C8.33784 25.9446 7.957 25.4481 8.00391 24.8887L9.14054 11.3017C9.18463 10.7734 9.58575 10.375 10.0739 10.375H21.433C21.9203 10.3756 22.3213 10.774 22.3656 11.3017L23.5021 24.8887C23.5045 24.9177 23.5057 24.9491 23.5057 24.9804C23.506 25.542 23.0861 25.9996 22.5692 26ZM10.0739 11.0543C9.91132 11.0543 9.77768 11.187 9.76304 11.3631L8.6265 24.9505C8.61068 25.1369 8.73787 25.3024 8.90943 25.3193L8.93771 25.3207H22.5688C22.741 25.3203 22.8807 25.1681 22.8807 24.9807L21.7431 11.3635C21.7285 11.1874 21.5948 11.0547 21.4324 11.0543H10.0739ZM13.2534 12.7536C13.2529 12.5663 13.1122 12.4134 12.9402 12.413L12.9416 11.7337C13.4566 11.735 13.8769 12.1918 13.8783 12.7517L13.2534 12.7536Z" fill="black"/>
<path d="M18.566 13.5C18.049 13.5 17.6284 13.0795 17.6284 12.5624C17.6284 12.0455 18.0489 11.625 18.566 11.625C19.0829 11.625 19.5034 12.0455 19.5034 12.5624C19.5034 13.0795 19.0829 13.5 18.566 13.5ZM18.566 12.25C18.3936 12.25 18.2534 12.3901 18.2534 12.5624C18.2534 12.735 18.3936 12.875 18.566 12.875C18.7384 12.875 18.8785 12.735 18.8785 12.5624C18.8785 12.3901 18.7384 12.25 18.566 12.25Z" fill="black"/>
<path d="M12.9409 13.5C12.424 13.5 12.0034 13.0795 12.0034 12.5624C12.0034 12.0455 12.4239 11.625 12.9409 11.625V12.25C12.7687 12.25 12.6284 12.39 12.6284 12.5624C12.6284 12.7348 12.7687 12.875 12.9409 12.875C13.1131 12.875 13.2534 12.7348 13.2534 12.5624H13.8784C13.8784 13.0795 13.4579 13.5 12.9409 13.5V13.5Z" fill="black"/>
<path d="M13.2531 12.5633C13.2527 12.391 13.112 12.2503 12.9399 12.25L12.9414 11.625C13.4563 11.6262 13.8767 12.0465 13.8781 12.5615L13.2531 12.5633Z" fill="black"/>
<path d="M18.8784 11.9375H18.2534V9.12506C18.2534 7.74659 17.1319 6.62505 15.7535 6.62505C14.375 6.62505 13.2535 7.74659 13.2535 9.12506V11.9375H12.6284V9.12506C12.6284 7.40184 14.0303 6 15.7535 6C17.4765 6 18.8784 7.40184 18.8784 9.12506V11.9375Z" fill="black"/>
</svg>
