<svg width="32" height="32" viewBox="0 0 32 32" fill="none" xmlns="http://www.w3.org/2000/svg">
<path d="M25.8779 25.2887L19.7925 19.2033C21.0565 17.7999 21.8334 15.9496 21.8334 13.9166C21.8333 9.55145 18.2819 6 13.9167 6C9.55145 6 6 9.55145 6 13.9167C6 18.2819 9.55145 21.8334 13.9167 21.8334C15.9496 21.8334 17.7999 21.0565 19.2034 19.7925L25.2887 25.8779C25.3701 25.9593 25.4768 26 25.5834 26C25.69 26 25.7966 25.9593 25.878 25.8779C26.0407 25.7152 26.0407 25.4515 25.8779 25.2887ZM13.9167 21C10.0113 21 6.83336 17.8225 6.83336 13.9167C6.83336 10.0109 10.0113 6.83332 13.9167 6.83332C17.8221 6.83332 21 10.0108 21 13.9167C21 17.8225 17.8221 21 13.9167 21Z" fill="black"/>
</svg>
