<svg width="32" height="32" viewBox="0 0 32 32" fill="none" xmlns="http://www.w3.org/2000/svg">
<circle cx="16" cy="16" r="15.5" stroke="#505050"/>
<g clip-path="url(#clip0_302_8613)">
<path d="M17.0625 23.9688H14.5002C14.0723 23.9688 13.7241 23.6206 13.7241 23.1926V17.4133H12.2292C11.8013 17.4133 11.4531 17.0651 11.4531 16.6372V14.1608C11.4531 13.7328 11.8013 13.3846 12.2292 13.3846H13.7241V12.1445C13.7241 10.9149 14.1102 9.86877 14.8406 9.11938C15.5742 8.36658 16.5995 7.96875 17.8055 7.96875L19.7596 7.97192C20.1869 7.97266 20.5344 8.3208 20.5344 8.74805V11.0474C20.5344 11.4753 20.1864 11.8235 19.7585 11.8235L18.4429 11.824C18.0416 11.824 17.9395 11.9044 17.9176 11.9291C17.8816 11.97 17.8387 12.0856 17.8387 12.4048V13.3845H19.6597C19.7968 13.3845 19.9296 13.4183 20.0437 13.4821C20.2899 13.6196 20.443 13.8798 20.443 14.1609L20.442 16.6373C20.442 17.0651 20.0939 17.4132 19.6659 17.4132H17.8387V23.1926C17.8387 23.6206 17.4905 23.9688 17.0625 23.9688ZM14.6621 23.0308H16.9006V16.9934C16.9006 16.7076 17.1332 16.4752 17.4188 16.4752H19.504L19.5049 14.3226H17.4187C17.1331 14.3226 16.9006 14.0902 16.9006 13.8044V12.4048C16.9006 12.0383 16.9379 11.6216 17.2145 11.3084C17.5487 10.9297 18.0754 10.886 18.4426 10.886L19.5964 10.8855V8.90967L17.8048 8.90674C15.8666 8.90674 14.6621 10.1475 14.6621 12.1445V13.8044C14.6621 14.0901 14.4297 14.3226 14.144 14.3226H12.3911V16.4752H14.144C14.4297 16.4752 14.6621 16.7076 14.6621 16.9934V23.0308ZM19.7578 8.90991H19.7579H19.7578Z" fill="#505050"/>
</g>
<defs>
<clipPath id="clip0_302_8613">
<rect width="15.9688" height="16" fill="white" transform="translate(8 8)"/>
</clipPath>
</defs>
</svg>
