<svg width="101" height="20" viewBox="0 0 101 20" fill="none" xmlns="http://www.w3.org/2000/svg">
<path d="M14.0097 7.4764V13.7185C14.0097 15.6319 14.0734 16.8755 14.201 17.4495C14.4242 18.3583 14.8467 18.8127 15.4686 18.8127C15.6599 18.8127 15.7556 18.8606 15.7556 18.9562C15.7556 19.0519 15.5642 19.0997 15.1816 19.0997C15.1656 19.0997 14.9583 19.0758 14.5597 19.028C14.1611 18.9801 13.8821 18.9562 13.7227 18.9562H12.4073C12.3275 18.9562 12.2638 18.9482 12.2159 18.9323C12.1681 18.9004 12.1442 18.8765 12.1442 18.8606L12.1203 18.8127C12.1203 17.5531 12.0724 16.6284 11.9768 16.0384C10.9563 16.9632 9.95186 17.7046 8.96332 18.2626C7.97478 18.8207 6.89855 19.0997 5.73462 19.0997C5.1128 19.0997 4.49098 19.0041 3.86915 18.8127C3.24733 18.6054 2.6574 18.3105 2.09935 17.9278C1.5413 17.5452 1.08689 17.011 0.736119 16.3254C0.385347 15.6398 0.209961 14.8665 0.209961 14.0055C0.209961 12.7619 0.481012 11.7255 1.02311 10.8964C1.56522 10.0673 2.35445 9.4455 3.39083 9.03096C4.4272 8.61641 5.60707 8.34535 6.93044 8.2178C8.25381 8.09025 9.79242 8.08228 11.5463 8.19388C11.5782 8.19388 11.618 8.19388 11.6659 8.19388C11.7137 8.19388 11.7775 8.16997 11.8572 8.12214C11.9369 8.05836 11.9768 7.97864 11.9768 7.88297C12.0406 7.65975 12.0485 7.36479 12.0007 6.99807C11.9529 6.61541 11.8971 6.20883 11.8333 5.77834C11.7695 5.3319 11.618 4.88546 11.3789 4.43903C11.1557 3.97664 10.8846 3.5621 10.5657 3.19538C10.2468 2.82866 9.80837 2.53369 9.25032 2.31048C8.69227 2.07131 8.05451 1.95173 7.33702 1.95173C6.76303 1.95173 6.19701 2.00754 5.63896 2.11914C5.08091 2.23075 4.52287 2.40614 3.96482 2.6453C3.40677 2.88447 2.93642 3.25118 2.55376 3.74545C2.18704 4.22378 1.97179 4.7898 1.90802 5.44351C1.90802 5.65078 1.86019 5.75442 1.76452 5.75442H1.71669C1.66885 5.77037 1.62102 5.75442 1.57319 5.70659C1.52536 5.65876 1.50144 5.57106 1.50144 5.44351C1.50144 5.41162 1.50941 5.18043 1.52536 4.74994C1.55725 4.3035 1.57319 3.88895 1.57319 3.50629C1.57319 3.12363 1.54927 2.89244 1.50144 2.81272L1.64494 2.52572C3.78146 1.45746 5.72665 0.923331 7.48051 0.923331C9.7127 0.923331 11.355 1.49732 12.4073 2.6453C13.4755 3.79329 14.0097 5.40365 14.0097 7.4764ZM9.94389 9.22229C9.40179 9.22229 8.93941 9.23026 8.55675 9.2462C8.17409 9.26215 7.69576 9.30201 7.12177 9.36578C6.54778 9.41362 6.06148 9.50131 5.66288 9.62886C5.28021 9.74047 4.86567 9.90789 4.41923 10.1311C3.97279 10.3543 3.61405 10.6174 3.343 10.9203C3.07194 11.2233 2.84075 11.6139 2.64942 12.0922C2.47404 12.5706 2.38634 13.1127 2.38634 13.7185C2.38634 15.0898 2.88061 16.1261 3.86915 16.8277C4.87364 17.5292 5.98176 17.8003 7.19352 17.6408C8.13423 17.4335 9.15465 16.9393 10.2548 16.158C11.3709 15.3608 11.9449 14.739 11.9768 14.2925C12.0884 12.6343 12.1043 11.2313 12.0246 10.0833C11.9927 9.86005 11.9369 9.68467 11.8572 9.55711C11.7456 9.4455 11.5303 9.36578 11.2115 9.31795C10.8926 9.25417 10.5976 9.22229 10.3266 9.22229H9.94389Z" fill="black"/>
<path d="M19.8665 1.49732C19.5955 1.49732 19.46 1.43355 19.46 1.30599C19.444 1.16249 19.6114 1.12263 19.9622 1.18641C19.9781 1.18641 19.9941 1.18641 20.01 1.18641C20.4086 1.25019 20.8949 1.25816 21.4689 1.21033C22.0589 1.14655 22.4495 1.13858 22.6408 1.18641C22.9278 1.18641 23.0713 1.62488 23.0713 2.50181V4.9891C23.0713 5.03693 23.0793 5.06882 23.0952 5.08477C23.1271 5.10071 23.167 5.10071 23.2148 5.08477C23.2626 5.06882 23.3105 5.03693 23.3583 4.9891C23.4061 4.82966 23.5815 4.55064 23.8845 4.15203C24.2034 3.75343 24.6179 3.29902 25.1281 2.7888C25.6383 2.27859 26.2841 1.84012 27.0653 1.47341C27.8466 1.09074 28.6438 0.899414 29.457 0.899414C30.4296 0.899414 31.3065 1.02697 32.0878 1.28208C32.869 1.52124 33.4909 1.80823 33.9532 2.14306C34.4316 2.47789 34.8381 2.90838 35.173 3.43454C35.5237 3.94476 35.7788 4.39917 35.9383 4.79777C36.0977 5.18043 36.2173 5.63484 36.297 6.161C36.3768 6.67121 36.4166 7.00604 36.4166 7.16548C36.4326 7.32493 36.4405 7.51626 36.4405 7.73948V17.9278C36.4405 18.1351 36.5282 18.3105 36.7036 18.454C36.879 18.5815 37.0863 18.6453 37.3254 18.6453C37.6443 18.725 37.8197 18.8127 37.8516 18.9084C37.8994 19.004 37.724 19.0599 37.3254 19.0758C36.879 18.9961 36.2891 18.9562 35.5556 18.9562C34.8381 18.9562 34.2641 18.9961 33.8337 19.0758C33.5626 19.0758 33.3872 19.0439 33.3075 18.9801C33.2437 18.9323 33.2597 18.8765 33.3553 18.8127C33.4669 18.7489 33.6264 18.6931 33.8337 18.6453C34.0888 18.6453 34.2721 18.5576 34.3837 18.3822C34.4953 18.1909 34.5511 17.9916 34.5511 17.7843V8.45696C34.5511 6.12911 33.8018 4.447 32.303 3.41063C31.0434 2.54964 29.6164 2.35034 28.022 2.81272C26.3638 3.29104 25.0803 4.36728 24.1715 6.04142C23.5337 7.1894 23.167 8.52871 23.0713 10.0594V17.9278C23.0713 18.3105 23.3583 18.5975 23.9323 18.7888C24.0758 18.7888 24.2034 18.8127 24.315 18.8606C24.4425 18.9084 24.4744 18.9562 24.4106 19.0041C24.3628 19.0519 24.2034 19.0758 23.9323 19.0758C23.5018 18.9961 22.9198 18.9562 22.1864 18.9562C21.4689 18.9562 20.887 18.9961 20.4405 19.0758C20.1695 19.0758 19.9941 19.0519 19.9144 19.0041C19.8506 18.9562 19.8745 18.9084 19.9861 18.8606C20.0977 18.8127 20.2492 18.7888 20.4405 18.7888C20.9348 18.6772 21.1819 18.3424 21.1819 17.7843V2.7888C21.1819 2.40614 21.0305 2.09523 20.7275 1.85607C20.4246 1.6169 20.1376 1.49732 19.8665 1.49732Z" fill="black"/>
<path d="M47.6875 18.6214C47.9108 18.6214 48.0224 18.6852 48.0224 18.8127C48.0224 18.9881 47.8071 19.0758 47.3766 19.0758C46.8983 18.9961 46.3084 18.9562 45.6068 18.9562C44.9372 18.9562 44.3472 18.9961 43.837 19.0758C43.5341 19.0758 43.3826 19.02 43.3826 18.9084C43.3826 18.8127 43.5341 18.7649 43.837 18.7649C44.0443 18.7649 44.2197 18.6453 44.3632 18.4061C44.5067 18.151 44.5784 17.9278 44.5784 17.7365V2.09523C44.5784 1.82418 44.4668 1.6169 44.2436 1.47341C44.0363 1.32991 43.8211 1.23424 43.5979 1.18641C43.3746 1.12263 43.263 1.06683 43.263 1.019C43.263 0.95522 43.3507 0.923331 43.5261 0.923331C43.5739 0.923331 43.7493 0.939275 44.0523 0.971163C44.3552 0.987107 44.6183 0.99508 44.8415 0.99508C45.2242 0.99508 45.7424 0.979135 46.3961 0.947247C47.0657 0.915358 47.4563 0.899414 47.568 0.899414C47.7274 0.899414 47.8071 0.931303 47.8071 0.99508C47.8071 1.13858 47.6636 1.21033 47.3766 1.21033C47.1215 1.2741 46.9063 1.40963 46.7309 1.6169C46.5714 1.80823 46.4917 1.96767 46.4917 2.09523V17.593C46.4917 17.864 46.5954 18.1112 46.8026 18.3344C47.0099 18.5417 47.2411 18.6453 47.4962 18.6453C47.5759 18.6453 47.6397 18.6373 47.6875 18.6214Z" fill="black"/>
<path d="M79.3869 18.6692C79.642 18.6692 79.7775 18.7171 79.7935 18.8127C79.8254 18.9084 79.642 18.9562 79.2434 18.9562C79.068 18.9562 78.7252 18.9482 78.215 18.9323C77.7048 18.9004 77.2265 18.8845 76.78 18.8845C76.3495 18.8845 76.0067 18.9084 75.7516 18.9562C75.353 18.9562 75.1617 18.9084 75.1776 18.8127C75.2095 18.7171 75.353 18.6692 75.6081 18.6692C75.8632 18.6054 76.0705 18.4619 76.2299 18.2387C76.4053 18.0155 76.493 17.8162 76.493 17.6408V7.1894C76.493 5.1326 75.7357 3.72951 74.221 2.98013C72.7222 2.21481 71.2235 2.29453 69.7247 3.21929C68.226 4.12811 67.4766 5.59498 67.4766 7.61989V17.7843C67.4766 18.1829 67.7636 18.4779 68.3376 18.6692C68.5927 18.6692 68.7282 18.7171 68.7442 18.8127C68.776 18.9084 68.5927 18.9562 68.1941 18.9562C68.0665 18.9562 67.7397 18.9482 67.2135 18.9323C66.7033 18.9004 66.217 18.8845 65.7546 18.8845C65.3082 18.8845 64.9574 18.9084 64.7023 18.9562C64.4313 18.9562 64.2559 18.9323 64.1761 18.8845C64.1124 18.8366 64.1363 18.7888 64.2479 18.741C64.3595 18.6931 64.511 18.6692 64.7023 18.6692C64.9574 18.6054 65.1408 18.4699 65.2524 18.2626C65.3799 18.0394 65.4437 17.8322 65.4437 17.6408V7.1894C65.4437 5.06882 64.6864 3.60993 63.1717 2.81272C61.6729 1.99956 60.1741 2.07131 58.6754 3.02797C57.1766 3.98462 56.4273 5.56309 56.4273 7.76339V17.7843C56.4273 18.0075 56.515 18.2148 56.6903 18.4061C56.8657 18.5815 57.065 18.6692 57.2882 18.6692C57.5274 18.6692 57.6709 18.733 57.7187 18.8606C57.7347 18.9243 57.7028 18.9642 57.6231 18.9801C57.5434 18.9961 57.4317 18.9881 57.2882 18.9562H53.653C53.3181 19.004 53.1348 18.9881 53.1029 18.9084C53.087 18.8446 53.1428 18.7888 53.2703 18.741C53.3819 18.6931 53.5095 18.6692 53.653 18.6692C53.9081 18.6054 54.0914 18.4779 54.203 18.2866C54.3147 18.0793 54.3705 17.9119 54.3705 17.7843V2.66922C54.3705 2.25467 54.227 1.93579 53.94 1.71257C53.653 1.47341 53.3181 1.35382 52.9355 1.35382C52.7442 1.35382 52.6405 1.30599 52.6246 1.21033C52.5927 1.13061 52.6325 1.0748 52.7442 1.04291C52.8398 1.02697 52.9514 1.03494 53.079 1.06683H55.6859C55.8453 1.14655 56.0047 1.32194 56.1642 1.59299C56.3396 1.84809 56.4273 2.11117 56.4273 2.38222V3.69762C56.4273 3.82517 56.4751 3.84112 56.5708 3.74545C56.6186 3.71357 56.6664 3.64979 56.7143 3.55412C57.0013 2.96419 57.5434 2.38222 58.3406 1.80823C59.1537 1.2183 60.1104 0.923331 61.2105 0.923331C62.8528 0.923331 64.0964 1.21033 64.9415 1.78432C65.8025 2.35831 66.496 3.13957 67.0222 4.12811C67.1019 4.25567 67.1737 4.28756 67.2374 4.22378C67.3012 4.16 67.3331 4.08028 67.3331 3.98462C67.6839 3.39468 68.2977 2.76488 69.1746 2.09523C70.0675 1.40963 71.0481 1.06683 72.1164 1.06683C73.0092 1.06683 73.8144 1.17844 74.5319 1.40166C75.2494 1.60893 75.8234 1.86404 76.2539 2.16698C76.7003 2.46992 77.075 2.85258 77.3779 3.31496C77.6968 3.77734 77.928 4.19189 78.0715 4.55861C78.215 4.90938 78.3266 5.3319 78.4063 5.82617C78.4861 6.3045 78.5259 6.63933 78.5259 6.83066C78.5259 7.02199 78.5259 7.25318 78.5259 7.52423C78.5259 7.57206 78.5259 7.60395 78.5259 7.61989V17.7843C78.5259 18.1829 78.8129 18.4779 79.3869 18.6692ZM67.4766 17.7843V8.05039V8.62438V17.7843Z" fill="black"/>
<path d="M98.4641 7.4764V13.7185C98.4641 15.6319 98.5278 16.8755 98.6554 17.4495C98.8786 18.3583 99.3011 18.8127 99.923 18.8127C100.114 18.8127 100.21 18.8606 100.21 18.9562C100.21 19.0519 100.019 19.0997 99.636 19.0997C99.62 19.0997 99.4128 19.0758 99.0141 19.028C98.6155 18.9801 98.3365 18.9562 98.1771 18.9562H96.8617C96.782 18.9562 96.7182 18.9482 96.6703 18.9323C96.6225 18.9004 96.5986 18.8765 96.5986 18.8606L96.5747 18.8127C96.5747 17.5531 96.5268 16.6284 96.4312 16.0384C95.4108 16.9632 94.4063 17.7046 93.4177 18.2626C92.4292 18.8207 91.353 19.0997 90.189 19.0997C89.5672 19.0997 88.9454 19.0041 88.3236 18.8127C87.7017 18.6054 87.1118 18.3105 86.5538 17.9278C85.9957 17.5452 85.5413 17.011 85.1905 16.3254C84.8398 15.6398 84.6644 14.8665 84.6644 14.0055C84.6644 12.7619 84.9354 11.7255 85.4775 10.8964C86.0196 10.0673 86.8089 9.4455 87.8452 9.03096C88.8816 8.61641 90.0615 8.34535 91.3848 8.2178C92.7082 8.09025 94.2468 8.08228 96.0007 8.19388C96.0326 8.19388 96.0724 8.19388 96.1203 8.19388C96.1681 8.19388 96.2319 8.16997 96.3116 8.12214C96.3913 8.05836 96.4312 7.97864 96.4312 7.88297C96.495 7.65975 96.5029 7.36479 96.4551 6.99807C96.4073 6.61541 96.3515 6.20883 96.2877 5.77834C96.2239 5.3319 96.0724 4.88546 95.8333 4.43903C95.6101 3.97664 95.339 3.5621 95.0201 3.19538C94.7012 2.82866 94.2628 2.53369 93.7047 2.31048C93.1467 2.07131 92.5089 1.95173 91.7914 1.95173C91.2174 1.95173 90.6514 2.00754 90.0934 2.11914C89.5353 2.23075 88.9773 2.40614 88.4192 2.6453C87.8612 2.88447 87.3908 3.25118 87.0082 3.74545C86.6414 4.22378 86.4262 4.7898 86.3624 5.44351C86.3624 5.65078 86.3146 5.75442 86.2189 5.75442H86.1711C86.1233 5.77037 86.0754 5.75442 86.0276 5.70659C85.9798 5.65876 85.9559 5.57106 85.9559 5.44351C85.9559 5.41162 85.9638 5.18043 85.9798 4.74994C86.0117 4.3035 86.0276 3.88895 86.0276 3.50629C86.0276 3.12363 86.0037 2.89244 85.9559 2.81272L86.0993 2.52572C88.2359 1.45746 90.1811 0.923331 91.9349 0.923331C94.1671 0.923331 95.8094 1.49732 96.8617 2.6453C97.9299 3.79329 98.4641 5.40365 98.4641 7.4764ZM94.3983 9.22229C93.8562 9.22229 93.3938 9.23026 93.0112 9.2462C92.6285 9.26215 92.1502 9.30201 91.5762 9.36578C91.0022 9.41362 90.5159 9.50131 90.1173 9.62886C89.7346 9.74047 89.3201 9.90789 88.8736 10.1311C88.4272 10.3543 88.0685 10.6174 87.7974 10.9203C87.5264 11.2233 87.2952 11.6139 87.1038 12.0922C86.9284 12.5706 86.8408 13.1127 86.8408 13.7185C86.8408 15.0898 87.335 16.1261 88.3236 16.8277C89.328 17.5292 90.4362 17.8003 91.6479 17.6408C92.5886 17.4335 93.6091 16.9393 94.7092 16.158C95.8253 15.3608 96.3993 14.739 96.4312 14.2925C96.5428 12.6343 96.5587 11.2313 96.479 10.0833C96.4471 9.86005 96.3913 9.68467 96.3116 9.55711C96.2 9.4455 95.9847 9.36578 95.6659 9.31795C95.347 9.25417 95.052 9.22229 94.781 9.22229H94.3983Z" fill="black"/>
</svg>
