<svg width="32" height="32" viewBox="0 0 32 32" fill="none" xmlns="http://www.w3.org/2000/svg">
<path d="M15.5586 16.0254C10.2881 16.0254 6 20.3135 6 25.584C6 25.8134 6.1862 25.9996 6.41561 25.9996C6.64501 25.9996 6.83121 25.8134 6.83121 25.584C6.83121 20.7714 10.7461 16.8566 15.5587 16.8566C20.3712 16.8566 24.2861 20.7714 24.2861 25.584C24.2861 25.8134 24.4723 25.9996 24.7017 25.9996C24.9311 25.9996 25.1173 25.8134 25.1173 25.584C25.1173 20.3126 20.8292 16.0254 15.5586 16.0254Z" fill="black"/>
<path d="M15.5583 6C13.0382 6 10.9868 8.05052 10.9868 10.5715C10.9868 13.0925 13.0382 15.143 15.5583 15.143C18.0784 15.143 20.1298 13.0925 20.1298 10.5715C20.1298 8.05052 18.0785 6 15.5583 6ZM15.5583 14.3118C13.4962 14.3118 11.818 12.6337 11.818 10.5715C11.818 8.50933 13.4962 6.83117 15.5583 6.83117C17.6205 6.83117 19.2987 8.50933 19.2987 10.5715C19.2987 12.6337 17.6205 14.3118 15.5583 14.3118Z" fill="black"/>
</svg>
